# xmcd
#
# Track frame offsets: 
#        150
#        17198
#        35613
#        55745
#        73403
#        97385
#        118590
#        145595
#        162200
#        178438
#
# Disc length: 2815 seconds
#
# Revision: 0
# Processed by: cddbd v1.5.2PL0 Copyright (c) Steve Scherf et al.
# Submitted via: ExactAudioCopy v0.99pb5
#
DISCID=960afd0a
DTITLE=Booker Newberry III - Power People
DYEAR=1995
DGENRE=R&B
TTITLE0=Notice Me
TTITLE1=Lovetown
TTITLE2=Power People
TTITLE3=My Girl
TTITLE4=Quality
TTITLE5=Sexual Healing
TTITLE6=Intimate Love
TTITLE7=Your Nobody 'til Somebody Loves You
TTITLE8=Flavour
TTITLE9=Baby
EXTD=
EXTT0=
EXTT1=
EXTT2=
EXTT3=
EXTT4=
EXTT5=
EXTT6=
EXTT7=
EXTT8=
EXTT9=
PLAYORDER=
